<?xml version="1.0" encoding="utf-8"?>
<!-- Generator: Adobe Illustrator 24.3.0, SVG Export Plug-In . SVG Version: 6.00 Build 0)  -->
<svg xmlns="http://www.w3.org/2000/svg" viewBox="0 0 492 492">
<g id="Layer_1">
	<g>
		<path d="M406.9,77.4l8.7,8.7l0,0c10,10,15,23.2,15,36.4c0,13.2-5,26.4-15,36.4l0,0L181,393.5h0c-0.8,0.8-1.7,1.3-2.6,1.5
			L69.5,430.8l0,0c-3,1-6.3-0.7-7.3-3.7c-0.4-1.3-0.4-2.7,0.1-3.9L98,314.3l5.5,1.8l-5.5-1.8c0.3-0.9,0.8-1.7,1.5-2.4L334,77.4
			c10-10,23.2-15,36.4-15C383.6,62.4,396.8,67.4,406.9,77.4L406.9,77.4z M407.4,94.3l-8.7-8.7c-7.8-7.8-18-11.7-28.3-11.7
			c-10.3,0-20.5,3.9-28.3,11.7L108.5,319.2l-31.8,97.2l97.1-31.9l233.6-233.6v0c7.8-7.8,11.7-18,11.7-28.3
			C419.1,112.3,415.2,102,407.4,94.3L407.4,94.3z"/>
		<path d="M111,308.5c-2.2-2.2-5.9-2.2-8.1,0s-2.2,5.9,0,8.1l73.4,73.4c2.2,2.2,5.9,2.2,8.1,0c2.2-2.2,2.2-5.9,0-8.1L111,308.5z"/>
		<path d="M324.1,95.5c-2.2-2.2-5.9-2.2-8.1,0c-2.2,2.2-2.2,5.9,0,8.1l73.4,73.4c2.2,2.2,5.9,2.2,8.1,0c2.2-2.2,2.2-5.9,0-8.1
			L324.1,95.5z"/>
		<path d="M316.1,159c2.2-2.2,2.2-5.9,0-8.1c-2.2-2.2-5.9-2.2-8.1,0L158.3,300.5c-2.2,2.2-2.2,5.9,0,8.1c2.2,2.2,5.9,2.2,8.1,0
			L316.1,159z"/>
		<path d="M342.1,185c2.2-2.2,2.2-5.9,0-8.1c-2.2-2.2-5.9-2.2-8.1,0L184.3,326.5c-2.2,2.2-2.2,5.9,0,8.1c2.2,2.2,5.9,2.2,8.1,0
			L342.1,185z"/>
		<path d="M114.9,415.9l-45.4,14.9l0,0c-3,1-6.3-0.7-7.3-3.7c-0.4-1.3-0.4-2.7,0.1-3.9l14.9-45.4l5.5,1.8l-5.5-1.8
			c1-3,4.2-4.7,7.3-3.7c0.9,0.3,1.7,0.8,2.4,1.5l30.7,30.7l0,0c2.2,2.2,2.2,5.9,0,8.1C116.8,415.1,115.8,415.6,114.9,415.9
			L114.9,415.9z M76.7,416.3l26-8.6l-17.5-17.5L76.7,416.3z"/>
	</g>
</g>
</svg>

